HIERARCHY
ROOT Hips
{
	OFFSET 0.00000 0.00000 0.00000
	CHANNELS 6 Xposition Yposition Zposition Zrotation Yrotation Xrotation 
	JOINT LHipJoint
	{
		OFFSET 0 0 0
		CHANNELS 3 Zrotation Yrotation Xrotation
		JOINT LeftUpLeg
		{
			OFFSET 1.32989 -1.57253 0.78074
			CHANNELS 3 Zrotation Yrotation Xrotation
			JOINT LeftLeg
			{
				OFFSET 2.24323 -6.16323 0.00000
				CHANNELS 3 Zrotation Yrotation Xrotation
				JOINT LeftFoot
				{
					OFFSET 2.32677 -6.39275 0.00000
					CHANNELS 3 Zrotation Yrotation Xrotation
					JOINT LeftToeBase
					{
						OFFSET 0.18686 -0.51340 1.95973
						CHANNELS 3 Zrotation Yrotation Xrotation
						End Site
						{
							OFFSET 0.00000 -0.00000 1.02033
						}
					}
				}
			}
		}
	}
	JOINT RHipJoint
	{
		OFFSET 0 0 0
		CHANNELS 3 Zrotation Yrotation Xrotation
		JOINT RightUpLeg
		{
			OFFSET -1.27392 -1.57253 0.78074
			CHANNELS 3 Zrotation Yrotation Xrotation
			JOINT RightLeg
			{
				OFFSET -2.19978 -6.04385 0.00000
				CHANNELS 3 Zrotation Yrotation Xrotation
				JOINT RightFoot
				{
					OFFSET -2.29380 -6.30216 0.00000
					CHANNELS 3 Zrotation Yrotation Xrotation
					JOINT RightToeBase
					{
						OFFSET -0.24624 -0.67655 1.94854
						CHANNELS 3 Zrotation Yrotation Xrotation
						End Site
						{
							OFFSET -0.00000 -0.00000 1.03267
						}
					}
				}
			}
		}
	}
	JOINT LowerBack
	{
		OFFSET 0 0 0
		CHANNELS 3 Zrotation Yrotation Xrotation
		JOINT Spine
		{
			OFFSET -0.05982 2.08655 0.02100
			CHANNELS 3 Zrotation Yrotation Xrotation
			JOINT Spine1
			{
				OFFSET 0.04735 2.08455 -0.01795
				CHANNELS 3 Zrotation Yrotation Xrotation
				JOINT Neck
				{
					OFFSET 0 0 0
					CHANNELS 3 Zrotation Yrotation Xrotation
					JOINT Neck1
					{
						OFFSET -0.10038 1.43781 0.03084
						CHANNELS 3 Zrotation Yrotation Xrotation
						JOINT Head
						{
							OFFSET 0.07701 1.43632 -0.18495
							CHANNELS 3 Zrotation Yrotation Xrotation
							End Site
							{
								OFFSET 0.02744 1.45633 -0.07361
							}
						}
					}
				}
				JOINT LeftShoulder
				{
					OFFSET 0 0 0
					CHANNELS 3 Zrotation Yrotation Xrotation
					JOINT LeftArm
					{
						OFFSET 2.75061 0.74389 0.25227
						CHANNELS 3 Zrotation Yrotation Xrotation
						JOINT LeftForeArm
						{
							OFFSET 4.36901 -0.00000 0.00000
							CHANNELS 3 Zrotation Yrotation Xrotation
							JOINT LeftHand
							{
								OFFSET 3.21737 -0.00000 -0.00000
								CHANNELS 3 Zrotation Yrotation Xrotation
								JOINT LeftFingerBase
								{
									OFFSET 0 0 0
									CHANNELS 3 Zrotation Yrotation Xrotation
									JOINT LeftHandIndex1
									{
										OFFSET 0.56431 -0.00000 0.00000
										CHANNELS 3 Zrotation Yrotation Xrotation
										End Site
										{
											OFFSET 0.45496 -0.00000 0.00000
										}
									}
								}
								JOINT LThumb
								{
									OFFSET 0 0 0
									CHANNELS 3 Zrotation Yrotation Xrotation
									End Site
									{
										OFFSET 0.46191 -0.00000 0.46191
									}
								}
							}
						}
					}
				}
				JOINT RightShoulder
				{
					OFFSET 0 0 0
					CHANNELS 3 Zrotation Yrotation Xrotation
					JOINT RightArm
					{
						OFFSET -2.97379 0.79094 0.48377
						CHANNELS 3 Zrotation Yrotation Xrotation
						JOINT RightForeArm
						{
							OFFSET -4.34118 -0.00000 -0.00000
							CHANNELS 3 Zrotation Yrotation Xrotation
							JOINT RightHand
							{
								OFFSET -3.09531 -0.00000 0.00000
								CHANNELS 3 Zrotation Yrotation Xrotation
								JOINT RightFingerBase
								{
									OFFSET 0 0 0
									CHANNELS 3 Zrotation Yrotation Xrotation
									JOINT RightHandIndex1
									{
										OFFSET -0.59745 -0.00000 0.00000
										CHANNELS 3 Zrotation Yrotation Xrotation
										End Site
										{
											OFFSET -0.48168 -0.00000 0.00000
										}
									}
								}
								JOINT RThumb
								{
									OFFSET 0 0 0
									CHANNELS 3 Zrotation Yrotation Xrotation
									End Site
									{
										OFFSET -0.48903 -0.00000 0.48903
									}
								}
							}
						}
					}
				}
			}
		}
	}
}
MOTION
Frames: 6
Frame Time: 0.0714286
0.00 0.00 0.00 0 0 0 0 0 0 -21 0 0 0 0 0 0 0 0 0 0 0 0 0 0 21 0 0 0 0 0 0 0 0 0 0 0 0 0 0 0 0 0 0 0 0 0 0 -16 0 0 21 0 0 11 0 0 0 -8 0 0 0 0 0 0 0 0 0 0 0 0 0 0 0 0 0 0 0 0 8 0 0 0 0 0 0 0 0 0 0 0 0 0 0 0 0 0
0.00 0.00 0.00 159.7800 -36.1314 -140.7850 0.0000 0.0000 0.0000 -29.3680 2.0133 -18.6203 2.1107 9.0929 26.0865 -0.9158 18.4298 -15.4030 1.6262 -8.0398 -22.8351 0.0000 0.0000 0.0000 1.0496 5.8690 -52.4742 -6.3521 -14.7610 46.3788 -1.3391 -9.5155 -27.1748 -0.0002 0.0829 -0.2278 1.6638 -0.0577 7.8589 8.4141 -0.3258 2.4461 7.9539 -0.4131 -1.8206 -5.8331 -12.9577 -2.5141 11.7952 -17.2688 -0.9857 4.2575 -8.5061 1.8320 -0.0000 0.0000 0.0000 41.8851 -16.1361 -30.3567 64.4404 -57.3815 -38.0593 -0.0000 0.0000 -5.6476 30.3071 23.0676 12.8997 -7.1250 0.0000 -0.0000 1.3502 56.2311 0.3720 -0.0000 0.0000 0.0000 9.4234 4.9859 -12.5070 -17.0067 26.8667 -4.0904 0.0000 -0.0000 -2.4616 -18.8794 21.2924 -7.0788 7.1250 -0.0000 -0.0000 6.2014 -7.7014 5.3466
0.00 0.00 0.00 153.6340 -29.4488 -131.9870 0.0000 0.0000 0.0000 -33.0468 1.8106 -21.0143 2.1215 9.1147 26.1547 -0.7611 15.7091 -10.0009 0.6770 -5.2613 -14.6554 0.0000 0.0000 0.0000 -0.8377 -0.6714 -67.2482 -10.8623 -17.8671 62.3337 -2.1989 0.4326 -27.9584 -0.0268 1.0566 -2.9044 3.2713 -0.1816 13.2156 9.7756 -0.0928 2.4313 8.6980 -0.3608 -4.8275 -4.7214 -12.7741 -4.4246 9.4511 -16.6942 -3.3850 3.2906 -8.2403 0.9616 -0.0000 -0.0000 0.0000 46.8125 -17.3828 -28.9037 41.4088 -48.8828 -19.4941 -0.0000 -0.0000 0.3195 18.2458 32.1192 9.9418 -7.1250 0.0000 -0.0000 -16.7785 62.6754 -7.3128 -0.0000 -0.0000 0.0000 3.8866 17.2204 -22.2490 -16.6161 26.3489 -3.9154 0.0000 -0.0000 -5.2553 -22.4830 18.8065 -7.5995 7.1250 -0.0000 -0.0000 3.6996 -9.7812 3.0238
0.00 0.00 0.00 143.3530 -12.6745 -110.7500 0.0000 0.0000 0.0000 -33.7631 2.9985 -13.3970 0.9221 6.1180 17.1272 -0.0777 5.2414 -0.0431 0.0308 1.1335 3.1162 0.0000 0.0000 0.0000 -11.1652 -1.9832 -85.0353 -16.9269 -19.7721 80.9821 -3.7634 12.2266 -35.1657 -0.0251 1.0219 -2.8091 11.0129 -1.7678 24.3936 10.6258 1.1132 0.6884 5.7161 -0.1076 -13.0102 -4.6694 -7.9308 -6.9258 8.3572 -10.0435 -11.1372 3.3967 -5.1725 -1.6796 -0.0000 -0.0000 0.0000 50.3258 -20.1317 -46.6720 26.0832 -37.2908 -8.9380 -0.0000 0.0000 -14.8696 32.4571 35.9816 20.4896 -7.1250 0.0000 -0.0000 -1.7054 70.6839 -1.0454 -0.0000 -0.0000 0.0000 -15.5329 41.5532 -57.7232 -12.7795 20.9633 -2.3738 0.0000 -0.0000 -2.8330 -37.8994 19.5117 -14.5745 7.1250 -0.0000 -0.0000 -6.0399 -5.9101 -5.4167
0.00 0.00 0.00 131.6280 -1.5030 -97.0935 0.0000 0.0000 0.0000 -24.7218 3.9574 11.7303 0.0000 -0.0000 -0.0000 -0.6538 27.1875 15.0162 0.0041 -0.4128 -1.1344 0.0000 0.0000 0.0000 -22.9906 -5.9394 -77.7730 -12.0330 -18.4046 66.0934 -4.0084 8.8999 -36.4614 -0.0009 0.1914 -0.5258 10.4785 -1.4139 22.5131 10.5746 1.8263 -1.8430 5.8357 0.3450 -15.0546 -1.9497 -6.1781 -7.4662 8.8537 -7.6622 -15.7674 3.3468 -4.2855 -3.4220 -0.0000 -0.0000 0.0000 51.3534 -22.2759 -51.7537 28.9020 -39.9335 -10.6978 -0.0000 0.0000 -22.1392 40.4606 31.0612 23.7520 -7.1250 0.0000 -0.0000 13.1720 67.9166 7.3031 -0.0000 -0.0000 0.0000 -21.3374 44.3190 -74.2311 -14.6272 23.6243 -3.0750 0.0000 -0.0000 -0.3043 -54.7488 29.3794 -34.7660 7.1250 -0.0000 -0.0000 -13.0720 13.3136 -16.1005
0.00 0.00 0.00 125.0130 10.8147 -88.7030 0.0000 0.0000 0.0000 -23.6652 -1.3142 18.8251 0.0000 -0.0000 -0.0000 -1.9112 39.0308 19.4639 0.0090 0.6126 1.6835 0.0000 0.0000 0.0000 -43.5487 2.7431 -58.2535 -5.8585 -14.2898 44.4112 -3.8041 -7.1562 -39.7680 -0.0778 -1.7998 4.9527 9.9161 -1.4498 19.5676 10.1574 1.5482 -3.6649 5.7478 0.3118 -15.5214 -1.6657 -3.8758 -9.3791 6.8796 -4.9360 -16.5578 2.6172 -2.9729 -3.5869 -0.0000 -0.0000 0.0000 47.6072 -20.0762 -50.5299 30.7142 -41.4977 -11.8800 -0.0000 0.0000 -27.2622 41.9808 32.1052 25.5580 -7.1250 0.0000 -0.0000 15.6900 69.5622 9.3036 -0.0000 -0.0000 0.0000 -27.0291 42.3438 -74.4327 -18.6104 28.9317 -4.8409 0.0000 0.0000 3.7395 -68.0191 34.5890 -54.5862 7.1250 -0.0000 -0.0000 -17.9704 29.3048 -25.2417
